<!DOCTYPE svg PUBLIC "-//W3C//DTD SVG 20010904//EN" "http://www.w3.org/TR/2001/REC-SVG-20010904/DTD/svg10.dtd">
<svg version="1.0" xmlns="http://www.w3.org/2000/svg" width="700px" height="700px" viewBox="0 0 7000 7000" preserveAspectRatio="xMidYMid meet">
<g id="layer101" fill="#81b516" stroke="none">
 <path d="M3055 6981 c-289 -36 -544 -94 -783 -181 -76 -27 -180 -61 -232 -76 -52 -14 -113 -36 -135 -47 -117 -58 -198 -154 -236 -278 l-21 -69 101 -168 c72 -121 96 -168 86 -172 -39 -14 -278 -213 -411 -342 -83 -82 -155 -148 -158 -148 -4 0 -33 28 -64 62 -67 72 -174 145 -261 178 l-63 23 -80 -79 c-348 -344 -605 -850 -722 -1424 -60 -298 -69 -382 -73 -751 l-5 -346 31 -185 c120 -715 375 -1272 774 -1694 l91 -97 81 6 c140 10 252 69 326 171 22 32 39 46 56 46 13 0 23 -6 23 -12 0 -7 52 -58 116 -113 63 -54 126 -114 139 -131 31 -41 116 -83 182 -91 28 -3 80 -2 116 1 57 7 72 13 110 46 24 22 56 63 69 92 14 29 55 94 92 145 36 51 66 95 66 100 0 16 -97 95 -149 121 -66 33 -122 81 -296 256 -106 106 -235 257 -308 357 -18 24 -99 181 -95 184 2 1 31 12 66 23 l62 21 14 -22 c78 -129 109 -175 169 -257 95 -127 338 -365 475 -465 60 -44 112 -87 115 -97 6 -20 379 -208 538 -271 142 -56 218 -76 317 -83 128 -10 304 39 365 100 21 22 52 38 91 49 77 21 85 29 62 67 -9 17 -15 39 -11 49 6 21 98 63 294 133 100 37 128 52 206 114 245 196 555 579 638 789 45 115 82 241 110 380 31 158 31 472 -1 621 -59 275 -187 532 -387 779 -86 106 -303 320 -393 387 -154 116 -337 206 -434 216 -29 3 -54 12 -64 23 -26 29 -32 24 -39 -36 -9 -69 7 -159 41 -235 25 -57 31 -62 168 -154 450 -300 704 -635 783 -1033 24 -121 24 -366 -1 -488 -50 -253 -196 -495 -451 -750 -276 -275 -534 -410 -855 -445 -184 -20 -452 24 -624 103 -232 108 -567 388 -717 599 -111 158 -189 350 -210 520 -13 100 -32 134 -89 158 -23 10 -29 21 -40 73 -18 96 -25 99 -28 15 -3 -81 -22 -110 -22 -34 0 24 -3 64 -6 89 -6 45 -6 46 27 60 19 8 53 29 77 46 41 30 42 33 42 89 0 71 -25 115 -77 139 -21 10 -40 18 -42 20 -5 3 30 155 40 175 5 9 18 20 29 23 11 4 31 23 45 43 l24 36 -19 31 -19 31 43 96 c88 196 166 331 226 393 32 33 60 69 62 79 4 24 200 204 312 287 52 39 85 57 95 53 85 -36 155 -25 225 37 46 40 47 43 40 85 l-6 44 45 19 c137 59 401 120 465 108 33 -6 35 10 12 78 -11 32 -23 83 -27 112 -5 47 -8 52 -27 48 -11 -3 -61 -14 -111 -24 -231 -51 -628 -191 -670 -236 -11 -13 -67 -57 -125 -100 -120 -90 -212 -166 -323 -271 -89 -84 -218 -273 -337 -494 -40 -74 -82 -145 -92 -156 -11 -12 -32 -64 -48 -115 -16 -52 -29 -84 -29 -71 -1 40 -18 23 -29 -30 -65 -294 -66 -699 -3 -1026 l18 -92 -61 -30 c-101 -49 -108 -48 -134 5 -16 34 -22 64 -22 117 0 39 -14 144 -31 232 -31 160 -31 162 -26 411 7 312 22 420 88 617 54 162 140 366 195 466 19 34 44 88 55 120 52 150 134 189 233 109 l29 -24 -62 -133 c-104 -221 -270 -654 -256 -668 7 -7 8 -6 40 78 65 172 202 437 307 592 21 31 38 68 38 82 0 49 206 273 355 387 286 219 608 351 1038 424 37 6 37 5 37 -27 0 -28 7 -38 48 -65 62 -42 141 -76 222 -96 81 -20 120 -25 295 -37 78 -5 176 -19 219 -30 212 -56 611 -281 881 -497 94 -75 113 -87 155 -91 82 -8 156 52 185 150 28 94 22 123 -41 205 -76 98 -250 264 -362 343 -284 200 -638 334 -1032 391 -217 31 -196 16 -192 139 3 72 8 110 18 119 12 13 33 12 166 -7 332 -47 597 -127 858 -259 133 -66 210 -115 395 -247 127 -91 263 -184 303 -207 248 -142 441 -128 618 46 69 67 73 73 88 142 30 133 14 276 -40 355 -16 24 -92 106 -169 184 -481 482 -1137 762 -2020 860 -223 25 -589 27 -770 5z"/>
 <path d="M6340 5483 c-114 -19 -245 -96 -339 -199 -56 -61 -151 -191 -151 -206 0 -17 353 -570 367 -575 23 -9 197 64 277 117 94 61 177 147 217 224 l32 61 -184 293 c-101 160 -186 291 -189 290 -3 0 -16 -3 -30 -5z"/>
 <path d="M5310 4691 c-50 -10 -57 -16 -85 -72 -34 -65 -55 -151 -55 -219 0 -52 24 -187 34 -198 6 -5 488 -53 492 -49 2 1 17 110 34 241 25 194 29 241 18 248 -7 4 -42 18 -78 29 -70 23 -290 35 -360 20z"/>
 <path d="M6704 4556 c-103 -37 -225 -100 -296 -151 l-47 -35 65 -147 c36 -82 79 -181 96 -220 17 -40 36 -73 42 -73 6 0 107 46 223 102 140 68 213 108 212 118 0 22 -184 434 -195 436 -5 2 -50 -12 -100 -30z"/>
 <path d="M6555 2584 c-82 -29 -210 -74 -283 -100 l-133 -47 6 -41 c16 -92 74 -306 105 -378 17 -43 44 -91 60 -108 27 -29 31 -30 119 -30 106 0 174 19 289 81 78 41 202 126 201 137 0 4 -42 126 -93 272 -61 175 -97 265 -107 266 -7 1 -81 -22 -164 -52z"/>
 <path d="M5445 2237 c-33 -80 -32 -84 26 -101 77 -23 87 -21 105 22 30 70 25 84 -31 98 -74 20 -84 18 -100 -19z"/>
 <path d="M5331 2044 l-45 -77 30 -24 c38 -32 86 -53 122 -53 25 0 33 9 72 76 33 59 41 81 33 93 -17 27 -68 51 -120 57 l-48 5 -44 -77z"/>
 <path d="M6064 1831 c-151 -82 -308 -219 -413 -361 -219 -295 -442 -481 -783 -652 -343 -171 -749 -277 -1231 -319 -127 -11 -141 -14 -178 -41 -49 -35 -79 -83 -79 -124 0 -62 148 -237 240 -284 83 -42 146 -53 289 -47 114 4 158 10 276 41 806 213 1455 585 1912 1098 159 179 229 278 254 359 57 188 -15 310 -211 353 -17 3 -42 -4 -76 -23z"/>
 <path d="M5245 1805 c-136 -30 -251 -98 -347 -207 -174 -195 -534 -378 -879 -447 -192 -38 -280 -46 -519 -46 -307 0 -505 25 -705 89 -44 14 -85 26 -91 26 -22 0 -124 -318 -124 -389 0 -41 67 -149 110 -177 88 -58 158 -74 460 -105 157 -16 295 -29 308 -29 l22 0 0 185 c0 140 3 187 13 189 6 2 73 9 147 15 436 36 855 164 1159 354 169 105 346 260 469 412 78 96 92 123 71 136 -17 11 -19 11 -94 -6z"/>
 <path d="M2105 959 c-38 -5 -104 -18 -145 -30 -83 -22 -230 -90 -252 -117 -13 -15 -6 -48 62 -292 42 -151 80 -274 84 -273 4 1 55 22 114 47 204 86 383 133 451 120 27 -6 30 -3 40 32 35 126 -11 304 -119 463 l-41 61 -62 -1 c-34 -1 -93 -6 -132 -10z"/>
 </g>
<g id="layer102" fill="#6fa400" stroke="none">
 <path d="M3055 6981 c-289 -36 -544 -94 -783 -181 -76 -27 -180 -61 -232 -76 -52 -14 -113 -36 -135 -47 -117 -58 -198 -154 -236 -278 l-21 -69 101 -168 c72 -121 96 -168 86 -172 -39 -14 -278 -213 -411 -342 -83 -82 -155 -148 -158 -148 -4 0 -33 28 -64 62 -67 72 -174 145 -261 178 l-63 23 -80 -79 c-348 -344 -605 -850 -722 -1424 -60 -298 -69 -382 -73 -751 l-5 -346 31 -185 c120 -715 375 -1272 774 -1694 l91 -97 81 6 c140 10 252 69 326 171 22 32 39 46 56 46 13 0 23 -6 23 -12 0 -7 52 -58 116 -113 63 -54 126 -114 139 -131 31 -41 116 -83 182 -91 28 -3 80 -2 116 1 57 7 72 13 110 46 24 22 56 63 69 92 14 29 55 94 92 145 36 51 66 95 66 100 0 16 -97 95 -149 121 -66 33 -122 81 -296 256 -106 106 -235 257 -308 357 -18 24 -99 181 -95 184 2 1 31 12 66 23 l62 21 14 -22 c78 -129 109 -175 169 -257 95 -127 338 -365 475 -465 60 -44 112 -87 115 -97 6 -20 379 -208 538 -271 142 -56 218 -76 317 -83 128 -10 304 39 365 100 21 22 52 38 91 49 77 21 85 29 62 67 -9 17 -15 39 -11 49 6 21 98 63 294 133 100 37 128 52 206 114 245 196 555 579 638 789 45 115 82 241 110 380 31 158 31 472 -1 621 -59 275 -187 532 -387 779 -86 106 -303 320 -393 387 -154 116 -337 206 -434 216 -29 3 -54 12 -64 23 -26 29 -32 24 -39 -36 -9 -69 7 -159 41 -235 25 -57 31 -62 168 -154 450 -300 704 -635 783 -1033 24 -121 24 -366 -1 -488 -50 -253 -196 -495 -451 -750 -276 -275 -534 -410 -855 -445 -184 -20 -452 24 -624 103 -232 108 -567 388 -717 599 -111 158 -189 350 -210 520 -13 100 -32 134 -89 158 -23 10 -29 21 -40 73 -18 96 -25 99 -28 15 -3 -81 -22 -110 -22 -34 0 24 -3 64 -6 89 -6 45 -6 46 27 60 19 8 53 29 77 46 41 30 42 33 42 89 0 71 -25 115 -77 139 -21 10 -40 18 -42 20 -5 3 30 155 40 175 5 9 18 20 29 23 11 4 31 23 45 43 l24 36 -19 31 -19 31 43 96 c88 196 166 331 226 393 32 33 60 69 62 79 4 24 200 204 312 287 52 39 85 57 95 53 85 -36 155 -25 225 37 46 40 47 43 40 85 l-6 44 45 19 c137 59 401 120 465 108 33 -6 35 10 12 78 -11 32 -23 83 -27 112 -5 47 -8 52 -27 48 -11 -3 -61 -14 -111 -24 -231 -51 -628 -191 -670 -236 -11 -13 -67 -57 -125 -100 -120 -90 -212 -166 -323 -271 -89 -84 -218 -273 -337 -494 -40 -74 -82 -145 -92 -156 -11 -12 -32 -64 -48 -115 -16 -52 -29 -84 -29 -71 -1 40 -18 23 -29 -30 -65 -294 -66 -699 -3 -1026 l18 -92 -61 -30 c-101 -49 -108 -48 -134 5 -16 34 -22 64 -22 117 0 39 -14 144 -31 232 -31 160 -31 162 -26 411 3 143 12 292 21 350 8 54 14 102 14 105 -1 3 2 12 5 20 3 8 27 78 53 155 51 153 136 355 190 453 19 34 44 88 54 118 52 151 118 185 225 117 l42 -26 -45 -91 c-99 -202 -292 -699 -277 -714 7 -7 8 -6 40 78 65 172 202 437 307 592 21 31 38 68 38 82 0 49 206 273 355 387 286 219 608 351 1038 424 37 6 37 5 37 -27 0 -28 7 -38 48 -65 62 -42 141 -76 222 -96 81 -20 120 -25 295 -37 78 -5 176 -19 219 -30 212 -56 611 -281 881 -497 94 -75 113 -87 155 -91 82 -8 156 52 185 150 28 94 22 123 -41 205 -76 98 -250 264 -362 343 -284 200 -638 334 -1032 391 -217 31 -196 16 -192 139 3 72 8 110 18 119 12 13 33 12 166 -7 332 -47 597 -127 858 -259 133 -66 210 -115 395 -247 127 -91 263 -184 303 -207 248 -142 441 -128 618 46 69 67 73 73 88 142 30 133 14 276 -40 355 -16 24 -92 106 -169 184 -481 482 -1137 762 -2020 860 -223 25 -589 27 -770 5z m473 -878 c-10 -2 -26 -2 -35 0 -10 3 -2 5 17 5 19 0 27 -2 18 -5z m-2421 -2475 c-2 -13 -4 -3 -4 22 0 25 2 35 4 23 2 -13 2 -33 0 -45z m-220 -165 c-2 -16 -4 -3 -4 27 0 30 2 43 4 28 2 -16 2 -40 0 -55z m220 -55 c-2 -13 -4 -5 -4 17 -1 22 1 32 4 23 2 -10 2 -28 0 -40z"/>
 <path d="M6340 5483 c-114 -19 -245 -96 -339 -199 -56 -61 -151 -191 -151 -206 0 -17 353 -570 367 -575 23 -9 197 64 277 117 94 61 177 147 217 224 l32 61 -184 293 c-101 160 -186 291 -189 290 -3 0 -16 -3 -30 -5z"/>
 <path d="M5310 4691 c-50 -10 -57 -16 -85 -72 -34 -65 -55 -151 -55 -219 0 -52 24 -187 34 -198 6 -5 488 -53 492 -49 2 1 17 110 34 241 25 194 29 241 18 248 -7 4 -42 18 -78 29 -70 23 -290 35 -360 20z"/>
 <path d="M6704 4556 c-103 -37 -225 -100 -296 -151 l-47 -35 65 -147 c36 -82 79 -181 96 -220 17 -40 36 -73 42 -73 6 0 107 46 223 102 140 68 213 108 212 118 0 22 -184 434 -195 436 -5 2 -50 -12 -100 -30z"/>
 <path d="M6555 2584 c-82 -29 -210 -74 -283 -100 l-133 -47 6 -41 c16 -92 74 -306 105 -378 17 -43 44 -91 60 -108 27 -29 31 -30 119 -30 106 0 174 19 289 81 78 41 202 126 201 137 0 4 -42 126 -93 272 -61 175 -97 265 -107 266 -7 1 -81 -22 -164 -52z"/>
 <path d="M5445 2237 c-33 -80 -32 -84 26 -101 77 -23 87 -21 105 22 30 70 25 84 -31 98 -74 20 -84 18 -100 -19z"/>
 <path d="M5331 2044 l-45 -77 30 -24 c38 -32 86 -53 122 -53 25 0 33 9 72 76 33 59 41 81 33 93 -17 27 -68 51 -120 57 l-48 5 -44 -77z"/>
 <path d="M6064 1831 c-151 -82 -308 -219 -413 -361 -219 -295 -442 -481 -783 -652 -343 -171 -749 -277 -1231 -319 -127 -11 -141 -14 -178 -41 -49 -35 -79 -83 -79 -124 0 -62 148 -237 240 -284 83 -42 146 -53 289 -47 114 4 158 10 276 41 806 213 1455 585 1912 1098 159 179 229 278 254 359 57 188 -15 310 -211 353 -17 3 -42 -4 -76 -23z"/>
 <path d="M2105 959 c-38 -5 -104 -18 -145 -30 -83 -22 -230 -90 -252 -117 -13 -15 -6 -48 62 -292 42 -151 80 -274 84 -273 4 1 55 22 114 47 204 86 383 133 451 120 27 -6 30 -3 40 32 35 126 -11 304 -119 463 l-41 61 -62 -1 c-34 -1 -93 -6 -132 -10z"/>
 </g>
<g id="layer103" fill="#a5ce01" stroke="none">
 <path d="M3170 6479 c-263 -25 -585 -110 -931 -244 -237 -92 -292 -131 -344 -242 l-27 -55 36 -54 c20 -30 62 -89 94 -133 l58 -79 24 20 c48 39 216 133 320 179 310 138 684 217 1100 234 l125 5 6 138 c3 75 9 161 13 190 l8 52 -199 -1 c-109 -1 -236 -5 -283 -10z"/>
 <path d="M3610 5779 l0 -98 -52 -15 c-56 -16 -188 -40 -275 -51 -51 -7 -53 -8 -53 -38 0 -27 8 -37 48 -64 62 -42 141 -76 222 -96 81 -20 120 -25 295 -37 78 -5 176 -19 219 -30 212 -56 611 -281 881 -497 94 -75 113 -87 155 -91 82 -8 156 52 185 150 28 94 22 123 -41 205 -76 98 -250 264 -362 343 -313 220 -708 359 -1179 413 l-43 5 0 -99z"/>
 <path d="M769 5653 c-393 -407 -626 -929 -740 -1658 -19 -118 -23 -194 -26 -486 l-5 -346 31 -185 c120 -715 375 -1272 774 -1694 l91 -97 81 6 c140 10 252 69 326 171 20 29 40 46 53 46 12 0 29 13 41 30 11 17 51 59 89 93 38 34 82 81 97 106 l28 44 -61 66 c-290 310 -514 782 -617 1300 -47 236 -54 310 -47 471 20 424 92 760 220 1030 113 235 233 441 352 601 60 81 73 103 65 118 -15 28 -204 204 -237 221 -16 8 -53 41 -83 73 -30 33 -82 77 -115 100 -57 38 -177 96 -202 97 -6 0 -58 -48 -115 -107z"/>
 <path d="M3060 5415 c-252 -57 -643 -194 -685 -240 -11 -13 -67 -57 -125 -100 -120 -90 -212 -166 -323 -271 -89 -84 -218 -273 -337 -494 -40 -74 -82 -145 -92 -156 -11 -12 -32 -64 -48 -115 -16 -52 -29 -84 -29 -71 -1 40 -18 23 -29 -30 -65 -293 -66 -699 -3 -1025 l18 -92 -46 -24 c-25 -14 -71 -32 -101 -42 -30 -10 -59 -21 -63 -25 -7 -6 50 -187 109 -346 l16 -42 51 15 c29 8 80 23 115 33 l63 18 13 -21 c142 -234 215 -328 387 -497 83 -82 194 -179 257 -225 60 -44 112 -87 115 -97 6 -20 379 -208 538 -271 142 -56 218 -76 317 -83 128 -10 304 39 365 100 21 22 52 38 91 49 77 21 85 29 62 67 -9 17 -15 39 -11 49 6 21 98 63 294 133 100 37 128 52 206 114 245 196 555 579 638 789 45 115 82 241 110 380 31 158 31 472 -1 621 -59 275 -187 532 -387 779 -86 106 -303 320 -393 387 -154 116 -337 206 -434 216 -29 3 -54 12 -64 23 -26 29 -32 24 -39 -36 -9 -69 7 -159 41 -235 25 -57 31 -62 168 -154 450 -300 704 -635 783 -1033 24 -121 24 -366 -1 -488 -50 -253 -196 -495 -451 -750 -276 -275 -534 -410 -855 -445 -184 -20 -452 24 -624 103 -232 108 -567 388 -717 599 -111 158 -189 350 -210 520 -9 69 -18 99 -33 116 -30 34 -69 52 -111 52 -35 0 -35 0 -35 44 0 24 -3 64 -6 89 -6 45 -6 46 27 60 19 8 53 29 77 46 41 30 42 33 42 89 0 71 -25 115 -77 139 -21 10 -40 18 -42 20 -5 3 30 155 40 175 5 9 18 20 29 23 11 4 31 23 45 43 l24 36 -19 31 -19 31 43 96 c88 196 166 331 226 393 32 33 60 69 62 79 4 24 200 204 312 287 52 39 85 57 95 53 85 -36 155 -25 225 37 46 40 47 43 40 85 l-6 44 45 19 c137 59 401 120 465 108 33 -6 35 10 12 78 -11 32 -23 83 -27 112 -3 29 -9 53 -12 52 -3 0 -53 -11 -111 -24z"/>
 <path d="M1690 4753 c-102 -212 -290 -697 -275 -711 7 -7 8 -6 40 78 65 172 202 437 307 592 48 71 50 102 7 117 -18 6 -33 11 -34 11 -1 0 -21 -39 -45 -87z"/>
 <path d="M1392 4657 c-29 -46 -71 -128 -93 -183 -23 -54 -52 -124 -65 -154 -12 -30 -30 -83 -38 -116 -19 -72 -36 -188 -26 -177 3 4 28 73 54 152 52 158 136 357 197 467 21 39 39 77 39 83 0 26 -18 6 -68 -72z"/>
 <path d="M5310 4691 c-50 -10 -57 -16 -85 -72 -34 -65 -55 -151 -55 -219 0 -52 24 -187 34 -198 6 -5 488 -53 492 -49 2 1 17 110 34 241 25 194 29 241 18 248 -7 4 -42 18 -78 29 -70 23 -290 35 -360 20z"/>
 <path d="M1150 3982 c0 -15 -5 -33 -10 -38 -18 -18 -30 -170 -35 -442 -6 -275 -1 -334 37 -447 19 -60 33 -83 43 -74 2 3 -9 77 -26 165 -31 158 -31 160 -26 409 5 221 11 297 32 423 4 19 2 32 -5 32 -5 0 -10 -13 -10 -28z"/>
 <path d="M6555 2584 c-82 -29 -210 -74 -283 -100 l-133 -47 6 -41 c16 -92 74 -306 105 -378 17 -43 44 -91 60 -108 27 -29 31 -30 119 -30 106 0 174 19 289 81 78 41 202 126 201 137 0 4 -42 126 -93 272 -61 175 -97 265 -107 266 -7 1 -81 -22 -164 -52z"/>
 <path d="M6064 1831 c-151 -82 -308 -219 -413 -361 -219 -295 -442 -481 -783 -652 -343 -171 -749 -277 -1231 -319 -127 -11 -141 -14 -178 -41 -49 -35 -79 -83 -79 -124 0 -62 148 -237 240 -284 83 -42 146 -53 289 -47 114 4 158 10 276 41 806 213 1455 585 1912 1098 159 179 229 278 254 359 57 188 -15 310 -211 353 -17 3 -42 -4 -76 -23z"/>
 <path d="M2105 959 c-38 -5 -104 -18 -145 -30 -83 -22 -230 -90 -252 -117 -13 -15 -6 -48 62 -292 42 -151 80 -274 84 -273 4 1 55 22 114 47 204 86 383 133 451 120 27 -6 30 -3 40 32 35 126 -11 304 -119 463 l-41 61 -62 -1 c-34 -1 -93 -6 -132 -10z"/>
 </g>
<g id="layer104" fill="#cae51e" stroke="none">
 <path d="M769 5653 c-393 -407 -626 -929 -740 -1658 -19 -118 -23 -194 -26 -486 l-5 -346 31 -185 c120 -715 375 -1272 774 -1694 l91 -97 81 6 c138 10 243 64 320 164 41 53 46 40 -59 159 -176 203 -304 400 -441 679 -116 236 -197 447 -202 530 -2 33 -8 69 -13 80 -12 27 -46 188 -70 337 -39 237 -22 606 41 907 119 572 302 981 591 1325 46 54 89 107 96 117 12 16 8 24 -40 75 -29 31 -80 75 -113 97 -56 38 -176 96 -201 97 -6 0 -58 -48 -115 -107z"/>
 <path d="M3615 4885 c-9 -69 7 -159 41 -235 25 -57 31 -62 168 -154 450 -300 704 -635 783 -1033 24 -121 24 -366 -1 -488 -50 -253 -196 -495 -451 -750 -276 -275 -534 -410 -855 -445 -184 -20 -452 24 -624 103 -232 108 -567 388 -717 599 -111 158 -189 350 -210 520 -12 95 -27 125 -73 150 -27 15 -106 19 -106 6 0 -30 45 -224 72 -307 131 -411 470 -886 816 -1145 l87 -66 91 0 c91 0 114 8 114 39 0 8 -10 25 -22 38 -32 34 -1 29 37 -6 55 -53 418 -158 706 -206 49 -7 89 -63 89 -122 l0 -42 67 20 c85 24 92 31 69 69 -9 17 -15 39 -11 49 6 21 98 63 294 133 100 37 128 52 206 114 245 196 555 579 638 789 45 115 82 241 110 380 31 158 31 472 -1 621 -59 275 -187 532 -387 779 -86 106 -303 320 -393 387 -154 116 -337 206 -434 216 -29 3 -54 12 -64 23 -26 29 -32 24 -39 -36z"/>
 <path d="M1691 4753 c-103 -212 -291 -697 -276 -711 7 -7 8 -6 40 78 65 172 202 437 307 592 41 61 49 103 21 111 -10 2 -25 8 -34 11 -13 6 -25 -12 -58 -81z"/>
 <path d="M5310 4691 c-50 -10 -57 -16 -85 -72 -34 -65 -55 -151 -55 -219 0 -52 24 -187 34 -198 6 -5 488 -53 492 -49 2 1 17 110 34 241 25 194 29 241 18 248 -7 4 -42 18 -78 29 -70 23 -290 35 -360 20z"/>
 <path d="M1392 3938 c-30 -133 -44 -269 -49 -461 -4 -149 -2 -212 6 -220 8 -8 11 22 11 121 0 84 9 203 26 329 14 109 28 217 31 241 8 60 -11 53 -25 -10z"/>
 <path d="M1675 3980 c-3 -5 -3 -10 1 -10 4 0 0 -8 -9 -18 -19 -21 -48 -98 -40 -106 11 -10 61 24 81 56 20 30 20 34 4 60 -17 30 -27 34 -37 18z"/>
 <path d="M1575 3631 c-7 -22 -25 -274 -20 -279 6 -6 71 26 113 57 41 30 42 33 42 89 0 67 -23 113 -69 137 -40 20 -58 19 -66 -4z"/>
 <path d="M6555 2584 c-82 -29 -210 -74 -283 -100 l-133 -47 6 -41 c16 -92 74 -306 105 -378 17 -43 44 -91 60 -108 27 -29 31 -30 119 -30 106 0 174 19 289 81 78 41 202 126 201 137 0 4 -42 126 -93 272 -61 175 -97 265 -107 266 -7 1 -81 -22 -164 -52z"/>
 <path d="M6064 1831 c-151 -82 -308 -219 -413 -361 -219 -295 -442 -481 -783 -652 -343 -171 -749 -277 -1231 -319 -127 -11 -141 -14 -178 -41 -49 -35 -79 -83 -79 -124 0 -62 148 -237 240 -284 83 -42 146 -53 289 -47 114 4 158 10 276 41 806 213 1455 585 1912 1098 159 179 229 278 254 359 57 188 -15 310 -211 353 -17 3 -42 -4 -76 -23z"/>
 <path d="M2322 1573 c2 -11 37 -36 96 -66 94 -49 140 -60 60 -15 -24 13 -69 41 -101 62 -48 31 -58 34 -55 19z"/>
 <path d="M2105 959 c-38 -5 -104 -18 -145 -30 -83 -22 -230 -90 -252 -117 -13 -15 -6 -48 62 -292 42 -151 80 -274 84 -273 4 1 55 22 114 47 204 86 383 133 451 120 27 -6 30 -3 40 32 35 126 -11 304 -119 463 l-41 61 -62 -1 c-34 -1 -93 -6 -132 -10z"/>
 </g>

</svg>